<?xml version="1.0" encoding="utf-8"?>
<!-- Generator: Adobe Illustrator 23.0.2, SVG Export Plug-In . SVG Version: 6.00 Build 0)  -->
<svg version="1.1" id="Layer_1" xmlns="http://www.w3.org/2000/svg" xmlns:xlink="http://www.w3.org/1999/xlink" x="0px" y="0px"
	 viewBox="0 0 1440 432" style="enable-background:new 0 0 1440 432;" xml:space="preserve">
<style type="text/css">
	.st0{fill:#FFFFFF;}
</style>
<g>
	<path d="M28.53,9.37h82.64l30.47,176.64L172.12,9.37h82.64l-74.37,268.57v144.61h-77.47V277.94L28.53,9.37z"/>
	<path d="M342.56,352.31h-40.8l-5.68,70.24H218.6L269.22,9.37H375.1l50.62,413.18h-77.47L342.56,352.31z M336.36,274.84
		L322.42,91.49l-14.46,183.35H336.36z"/>
	<path d="M804.29,9.37l-71.27,413.18H599.76V120.42l-40.8,302.14H425.71V9.37h77.47V336.3L542.43,9.37h134.8V336.3L716.49,9.37
		H804.29z"/>
	<path d="M1182.87,9.37l-71.27,413.18H978.34V120.42l-40.8,302.14H804.29V9.37h77.47V336.3L921.01,9.37h134.8V336.3l39.25-326.93
		H1182.87z"/>
	<path d="M1404.44,9.37v413.18h-77.47l-66.63-204.01v204.01h-77.47V9.37h77.47l66.63,204.01V9.37H1404.44z"/>
</g>
<g>
	<path class="st0" d="M28.53-466.63h82.64l30.47,176.64l30.47-176.64h82.64l-74.37,268.57v144.61h-77.47v-144.61L28.53-466.63z"/>
	<path class="st0" d="M342.56-123.69h-40.8l-5.68,70.24H218.6l50.61-413.18H375.1l50.62,413.18h-77.47L342.56-123.69z
		 M336.36-201.16l-13.94-183.35l-14.46,183.35H336.36z"/>
	<path class="st0" d="M804.29-466.63L733.01-53.44H599.76v-302.14l-40.8,302.14H425.71v-413.18h77.47v326.93l39.25-326.93h134.8
		v326.93l39.25-326.93H804.29z"/>
	<path class="st0" d="M1182.87-466.63l-71.27,413.18H978.34v-302.14l-40.8,302.14H804.29v-413.18h77.47v326.93l39.25-326.93h134.8
		v326.93l39.25-326.93H1182.87z"/>
	<path class="st0" d="M1404.44-466.63v413.18h-77.47l-66.63-204.01v204.01h-77.47v-413.18h77.47l66.63,204.01v-204.01H1404.44z"/>
</g>
</svg>
